<?xml version="1.0" encoding="utf-8"?>
<!-- Generator: Adobe Illustrator 25.4.1, SVG Export Plug-In . SVG Version: 6.00 Build 0)  -->
<svg version="1.1" id="Capa_1" xmlns="http://www.w3.org/2000/svg" xmlns:xlink="http://www.w3.org/1999/xlink" x="0px" y="0px"
	 viewBox="0 0 615.12 795.12" style="enable-background:new 0 0 615.12 795.12;" xml:space="preserve">
<style type="text/css">
	.st0{fill:none;stroke:#C0C0C0;stroke-miterlimit:10;}
	.st1{fill:none;}
</style>
<path class="st0" d="M205.98,795.12c-1.79-6.55-3.13-12.82-4.15-18.66c-1.51-8.61-2.59-15.1-3.14-18.97
	c-0.4-2.88-1.2-9.43-1.69-14.53c-0.25-2.64-0.2-3.34-0.75-10.35c-0.2-2.55-0.43-7.08-0.51-8.53c-0.18-3.33-0.2-3.99-0.28-9.41
	c-0.1-7.01-0.21-7.4-0.16-11.16c0.02-1.49,0.07-3.08,0.17-6.27c0.11-3.43,0.18-5.74,0.31-8.58c0.15-3.19,0.32-7.02,0.76-11.78
	c0.14-1.49,0.4-3.74,0.92-8.17c0.96-8.18,1.45-12.34,1.9-15.32c0.56-3.71,1.04-6.24,1.86-10.54c0,0,1.9-9.95,4.33-19.76
	c0.2-0.82,0.97-3.87,1.93-7c0,0,0,0,0,0c0.95-3.08,1.53-5.2,1.61-5.51c0.85-3.05,5.61-16.83,7.7-23.33
	c4.03-12.54,6.23-23.2,7.95-31.57c0.31-1.53,1.06-5.19,1.91-9.96c1.27-7.1,2.56-15.43,3.64-24.97c3.03-26.51,2.53-44.96,2.46-46.86
	c-0.09-2.34-0.2-5.22-0.2-5.22c-0.11-2.81-0.21-5.03-0.24-5.6c-0.03-0.64-0.64-13.88-1.9-23.46c-0.32-2.41-0.71-5.13-0.71-5.13
	s-0.39-2.67-0.77-5.05c-1.71-10.66-4.04-20.67-4.04-20.67c-2.1-8.99-3.53-13.09-5.14-20.22c-0.83-3.69-1.74-8.31-1.99-9.65
	c-0.22-1.2-0.43-2.4-0.43-2.4c-0.05-0.26-0.16-0.9-0.29-1.69c-0.27-1.58-0.46-2.82-0.64-3.96c-0.26-1.68-0.69-4.43-0.86-5.69
	c0,0-0.21-1.55-0.31-2.18c0,0,0,0,0,0c0,0,0,0,0,0c0,0-0.37-2.68-0.58-4.26c0,0-0.18-1.36-0.35-2.74c0,0,0-0.03,0-0.03
	c0,0-0.04-0.39-0.09-0.76c-2.18-15.96-2.43-27.99-2.53-30.44c-0.32-7.86-0.31-14.13-0.28-17.3c0-0.51,0.03-2.74,0.09-5.7
	c0.14-5.8,0.36-10.4,0.51-13.04c0.14-2.57,0.54-9.79,1.11-14.86c0.04-0.32,0.27-2.41,0.57-4.99c0.14-1.24,0.33-2.84,0.43-3.7
	c0,0,1.27-10.86,2.66-17.81l0,0c0,0,0.16-0.8,0.32-1.59c0.3-1.48,1.24-5.92,1.48-7.04c0,0,0-0.01,0-0.01
	c0.37-1.75,0.68-3.12,0.85-3.92c0,0,0.96-4.31,1.47-6.21c0,0,0.01-0.03,0.01-0.03c0.05-0.18,0.07-0.25,0.1-0.38
	c0,0,0.01-0.03,0.01-0.03c0.07-0.26,0.76-2.83,0.9-3.37c0.47-1.77,0.97-3.9,1.09-4.4c0.74-3.1,1.91-6.79,3.06-10.31
	c3.35-10.23,3.84-10.6,6.22-18.24c1.57-5.04,2.64-8.96,3-10.33c0.67-2.49,1.16-4.48,1.82-7.17c0.67-2.7,1.35-5.47,2.18-9.13
	c0.7-3.1,1.62-7.32,2.58-12.32c0.22-1.14,0.82-4.31,1.52-8.41c0.58-3.39,0.91-5.61,1.01-6.28c0.06-0.39,0.19-1.29,0.51-3.63
	c0.6-4.37,0.9-6.55,1.23-9.32c0.3-2.47,0.48-4.25,0.73-6.74c0.23-2.26,0.51-4.96,0.77-8.11c0.29-3.49,0.51-7.44,0.93-15.34
	c0.14-2.58,0.23-4.38,0.28-6.76c0.05-2.37,0.03-4.7,0.02-5.91c0-0.12-0.01-1.2-0.03-2.42c-0.15-7.93-0.34-17.93-1.25-27.71
	c-0.12-1.31-0.37-3.67-0.87-8.4c-0.1-0.92-0.29-2.71-0.53-4.45c-0.15-1.06-0.26-1.89-0.41-2.87c-0.43-2.87-0.97-5.93-1.1-6.77
	c-0.77-4.76-1.98-10.73-2.94-15.16c-1.18-5.4-3.04-12.28-3.68-14.33"/>
<path class="st0" d="M262.57,794.85c-1.79-6.55-3.13-12.82-4.15-18.66c-1.51-8.61-2.59-15.1-3.14-18.97
	c-0.4-2.88-1.2-9.43-1.69-14.53c-0.25-2.64-0.2-3.34-0.75-10.35c-0.2-2.55-0.43-7.08-0.51-8.53c-0.18-3.33-0.2-3.99-0.28-9.41
	c-0.1-7.01-0.21-7.4-0.16-11.16c0.02-1.49,0.07-3.08,0.17-6.27c0.11-3.43,0.18-5.74,0.31-8.58c0.15-3.19,0.32-7.02,0.76-11.78
	c0.14-1.49,0.4-3.74,0.92-8.17c0.96-8.18,1.45-12.34,1.9-15.32c0.56-3.71,1.04-6.24,1.86-10.54c0,0,1.9-9.95,4.33-19.76
	c0.2-0.82,0.97-3.87,1.93-7c0,0,0,0,0,0c0.95-3.08,1.53-5.2,1.61-5.51c0.85-3.05,5.61-16.83,7.7-23.33
	c4.03-12.54,6.23-23.2,7.95-31.57c0.31-1.53,1.06-5.19,1.91-9.96c1.27-7.1,2.56-15.43,3.64-24.97c3.03-26.51,2.53-44.96,2.46-46.86
	c-0.09-2.34-0.2-5.22-0.2-5.22c-0.11-2.81-0.21-5.03-0.24-5.6c-0.03-0.64-0.64-13.88-1.9-23.46c-0.32-2.41-0.71-5.13-0.71-5.13
	s-0.39-2.67-0.77-5.05c-1.71-10.66-4.04-20.67-4.04-20.67c-2.1-8.99-3.53-13.09-5.14-20.22c-0.83-3.69-1.74-8.31-1.99-9.65
	c-0.22-1.2-0.43-2.4-0.43-2.4c-0.05-0.26-0.16-0.9-0.29-1.69c-0.27-1.58-0.46-2.82-0.64-3.96c-0.26-1.68-0.69-4.43-0.86-5.69
	c0,0-0.21-1.55-0.31-2.18c0,0,0,0,0,0c0,0,0,0,0,0c0,0-0.37-2.68-0.58-4.26c0,0-0.18-1.36-0.35-2.74c0,0,0-0.03,0-0.03
	c0,0-0.04-0.39-0.09-0.76c-2.18-15.96-2.43-27.99-2.53-30.44c-0.32-7.86-0.31-14.13-0.28-17.3c0-0.51,0.03-2.74,0.09-5.7
	c0.14-5.79,0.36-10.4,0.51-13.04c0.14-2.57,0.54-9.79,1.11-14.86c0.04-0.32,0.27-2.41,0.57-4.99c0.14-1.24,0.33-2.84,0.43-3.7
	c0,0,1.27-10.86,2.66-17.81l0,0c0,0,0.16-0.8,0.32-1.59c0.3-1.48,1.24-5.92,1.48-7.04c0,0,0-0.01,0-0.01
	c0.37-1.75,0.68-3.12,0.85-3.92c0,0,0.96-4.31,1.47-6.21c0,0,0.01-0.03,0.01-0.03c0.05-0.18,0.07-0.25,0.1-0.38
	c0,0,0.01-0.03,0.01-0.03c0.07-0.26,0.76-2.83,0.9-3.37c0.47-1.77,0.97-3.9,1.09-4.4c0.74-3.1,1.91-6.79,3.06-10.31
	c3.35-10.23,3.84-10.6,6.22-18.24c1.57-5.04,2.64-8.96,3-10.33c0.67-2.49,1.16-4.48,1.82-7.17c0.67-2.7,1.35-5.47,2.18-9.13
	c0.7-3.1,1.62-7.32,2.58-12.32c0.22-1.14,0.82-4.31,1.52-8.41c0.58-3.39,0.91-5.61,1.01-6.28c0.06-0.39,0.19-1.29,0.51-3.63
	c0.6-4.37,0.9-6.55,1.23-9.32c0.3-2.47,0.48-4.25,0.73-6.74c0.23-2.26,0.51-4.96,0.77-8.11c0.29-3.49,0.51-7.44,0.93-15.34
	c0.14-2.58,0.23-4.38,0.28-6.76c0.05-2.37,0.03-4.7,0.02-5.91c0-0.12-0.01-1.2-0.03-2.42c-0.15-7.93-0.34-17.93-1.25-27.71
	c-0.12-1.31-0.37-3.67-0.87-8.4c-0.1-0.92-0.29-2.71-0.53-4.45c-0.15-1.06-0.26-1.89-0.41-2.87c-0.43-2.87-0.97-5.93-1.1-6.77
	c-0.77-4.76-1.98-10.73-2.94-15.16c-1.18-5.4-3.04-12.28-3.68-14.33"/>
<path class="st0" d="M367.11,794.85c-1.79-6.55-3.13-12.82-4.15-18.66c-1.51-8.61-2.59-15.1-3.14-18.97
	c-0.4-2.88-1.2-9.43-1.69-14.53c-0.25-2.64-0.2-3.34-0.75-10.35c-0.2-2.55-0.43-7.08-0.51-8.53c-0.18-3.33-0.2-3.99-0.28-9.41
	c-0.1-7.01-0.21-7.4-0.16-11.16c0.02-1.49,0.07-3.08,0.17-6.27c0.11-3.43,0.18-5.74,0.31-8.58c0.15-3.19,0.32-7.02,0.76-11.78
	c0.14-1.49,0.4-3.74,0.92-8.17c0.96-8.18,1.45-12.34,1.9-15.32c0.56-3.71,1.04-6.24,1.86-10.54c0,0,1.9-9.95,4.33-19.76
	c0.2-0.82,0.97-3.87,1.93-7c0,0,0,0,0,0c0.95-3.08,1.53-5.2,1.61-5.51c0.85-3.05,5.61-16.83,7.7-23.33
	c4.03-12.54,6.23-23.2,7.95-31.57c0.31-1.53,1.06-5.19,1.91-9.96c1.27-7.1,2.56-15.43,3.64-24.97c3.03-26.51,2.53-44.96,2.46-46.86
	c-0.09-2.34-0.2-5.22-0.2-5.22c-0.11-2.81-0.21-5.03-0.24-5.6c-0.03-0.64-0.64-13.88-1.9-23.46c-0.32-2.41-0.71-5.13-0.71-5.13
	s-0.39-2.67-0.77-5.05c-1.71-10.66-4.04-20.67-4.04-20.67c-2.1-8.99-3.53-13.09-5.14-20.22c-0.83-3.69-1.74-8.31-1.99-9.65
	c-0.22-1.2-0.43-2.4-0.43-2.4c-0.05-0.26-0.16-0.9-0.29-1.69c-0.27-1.58-0.46-2.82-0.64-3.96c-0.26-1.68-0.69-4.43-0.86-5.69
	c0,0-0.21-1.55-0.31-2.18c0,0,0,0,0,0c0,0,0,0,0,0c0,0-0.37-2.68-0.58-4.26c0,0-0.18-1.36-0.35-2.74c0,0,0-0.03,0-0.03
	c0,0-0.04-0.39-0.09-0.76c-2.18-15.96-2.43-27.99-2.53-30.44c-0.32-7.86-0.31-14.13-0.28-17.3c0-0.51,0.03-2.74,0.09-5.7
	c0.14-5.79,0.36-10.4,0.51-13.04c0.14-2.57,0.54-9.79,1.11-14.86c0.04-0.32,0.27-2.41,0.57-4.99c0.14-1.24,0.33-2.84,0.43-3.7
	c0,0,1.27-10.86,2.66-17.81l0,0c0,0,0.16-0.8,0.32-1.59c0.3-1.48,1.24-5.92,1.48-7.04c0,0,0-0.01,0-0.01
	c0.37-1.75,0.68-3.12,0.85-3.92c0,0,0.96-4.31,1.47-6.21c0,0,0.01-0.03,0.01-0.03c0.05-0.18,0.07-0.25,0.1-0.38
	c0,0,0.01-0.03,0.01-0.03c0.07-0.26,0.76-2.83,0.9-3.37c0.47-1.77,0.97-3.9,1.09-4.4c0.74-3.1,1.91-6.79,3.06-10.31
	c3.35-10.23,3.84-10.6,6.22-18.24c1.57-5.04,2.64-8.96,3-10.33c0.67-2.49,1.16-4.48,1.82-7.17c0.67-2.7,1.35-5.47,2.18-9.13
	c0.7-3.1,1.62-7.32,2.58-12.32c0.22-1.14,0.82-4.31,1.52-8.41c0.58-3.39,0.91-5.61,1.01-6.28c0.06-0.39,0.19-1.29,0.51-3.63
	c0.6-4.37,0.9-6.55,1.23-9.32c0.3-2.47,0.48-4.25,0.73-6.74c0.23-2.26,0.51-4.96,0.77-8.11c0.29-3.49,0.51-7.44,0.93-15.34
	c0.14-2.58,0.23-4.38,0.28-6.76c0.05-2.37,0.03-4.7,0.02-5.91c0-0.12-0.01-1.2-0.03-2.42c-0.15-7.93-0.34-17.93-1.25-27.71
	c-0.12-1.31-0.37-3.67-0.87-8.4c-0.1-0.92-0.29-2.71-0.53-4.45c-0.15-1.06-0.26-1.89-0.41-2.87c-0.43-2.87-0.97-5.93-1.1-6.77
	c-0.77-4.76-1.98-10.73-2.94-15.16c-1.18-5.4-3.04-12.28-3.68-14.33"/>
<rect x="0.04" y="0.12" class="st1" width="615" height="795"/>
</svg>
